<svg width="1476" height="544" viewBox="0 0 1476 544" fill="none" xmlns="http://www.w3.org/2000/svg">
<g clip-path="url(#clip0_2174_224)">
<rect width="1476" height="544" fill="#A51C30"/>
<path d="M0 0C487.08 0 974.16 0 1476 0C1476 179.52 1476 359.04 1476 544C988.92 544 501.84 544 0 544C0 364.48 0 184.96 0 0Z" fill="#A51C30"/>
<path d="M955.32 218.477C964.942 225.431 970.573 234.297 973 246C974.906 259.258 972.525 271.94 964.914 283.043C958.229 290.983 950.357 295.807 940 297C928.677 297.87 918.831 296.471 910 288.949C901.23 280.402 896.954 270.482 896.758 258.312C896.713 244.808 898.758 234.187 908.004 223.734C919.948 212.197 941.021 209.377 955.32 218.477Z" fill="#1E1E1E"/>
<path d="M1325.83 216.543C1335.7 223.176 1342.67 231.028 1345.49 242.688C1347.51 255.837 1347.11 270.12 1339.25 281.375C1338.2 282.614 1337.12 283.823 1336 285C1335.14 285.922 1335.14 285.922 1334.26 286.863C1326.85 294.039 1318.24 297.457 1307.94 297.563C1297.53 297.345 1289.24 294.301 1281.3 287.535C1271.85 277.106 1269.3 263.649 1269.69 250.012C1270.37 238.005 1276.27 228.882 1285 221C1295.57 212.424 1313.37 210.3 1325.83 216.543Z" fill="#1E1E1E"/>
<path d="M754.688 213.688C755.548 213.658 756.408 213.629 757.295 213.6C766.092 213.513 773.208 216.685 780.082 222.105C787.953 229.88 792.328 239.924 792.469 250.866C792.458 251.797 792.448 252.728 792.438 253.688C792.429 254.658 792.419 255.629 792.41 256.63C792.106 269.297 789.129 278.785 780 288C775.285 292.348 770.129 294.323 764 296C763.37 296.187 762.739 296.374 762.09 296.566C751.796 298.702 740.787 296.71 732 291C724.389 285.054 718.972 276.512 717 267C716.754 263.462 716.769 259.921 716.75 256.375C716.729 255.428 716.709 254.48 716.688 253.504C716.62 241.192 720.404 231.686 728.813 222.75C736.554 215.302 744.299 213.802 754.688 213.688Z" fill="#1E1E1E"/>
<path d="M1130.88 213.813C1131.8 213.8 1132.73 213.788 1133.69 213.775C1144.17 213.754 1152.87 214.983 1161 222C1165.34 226.975 1166.37 231.868 1166.27 238.305C1165.73 243.672 1164.07 248.157 1159.99 251.789C1158.59 252.807 1157.17 253.785 1155.71 254.711C1153.69 255.979 1153.69 255.979 1153 259C1153.6 259.248 1154.2 259.495 1154.81 259.75C1159.28 262.303 1160.55 266.105 1161.94 270.875C1162.27 272.016 1162.61 273.157 1162.95 274.332C1163.47 276.148 1163.47 276.148 1164 278C1164.38 279.262 1164.76 280.524 1165.14 281.824C1168 291.48 1168 291.48 1168 296C1163.38 296 1158.76 296 1154 296C1150.96 288.954 1148.87 281.968 1147.13 274.516C1145.93 270.77 1144.39 268.112 1142 265C1137.15 262.573 1131.37 262.767 1126 262C1126 273.22 1126 284.44 1126 296C1121.05 296 1116.1 296 1111 296C1110.98 285.587 1110.96 275.173 1110.95 264.76C1110.94 259.925 1110.94 255.09 1110.92 250.255C1110.91 245.593 1110.91 240.931 1110.91 236.269C1110.9 234.487 1110.9 232.704 1110.89 230.921C1110.89 228.433 1110.89 225.945 1110.89 223.457C1110.88 222.713 1110.88 221.968 1110.88 221.201C1110.89 216.114 1110.89 216.114 1112 215C1118.3 213.974 1124.5 213.817 1130.88 213.813Z" fill="#1E1E1E"/>
<path d="M807.813 214.625C808.538 214.588 809.263 214.55 810.01 214.512C812.145 214.477 812.145 214.477 816 215C819.181 218.399 821.455 222.261 823.793 226.27C824.141 226.863 824.488 227.457 824.846 228.069C825.964 229.981 827.076 231.897 828.188 233.813C828.955 235.129 829.723 236.446 830.491 237.762C835.143 245.748 839.745 253.76 844.238 261.836C846.133 265.239 848.068 268.619 850 272C850 253.19 850 234.38 850 215C854.62 215 859.24 215 864 215C864 241.73 864 268.46 864 296C859.05 296 854.1 296 849 296C845.919 292.803 844.821 290.902 843 287C841.944 285.149 840.845 283.328 839.744 281.504C838.451 279.355 837.186 277.192 835.926 275.023C833.768 271.313 831.596 267.612 829.418 263.914C828.174 261.797 826.931 259.68 825.688 257.563C824.808 256.072 824.808 256.072 823.91 254.551C823.346 253.586 822.781 252.622 822.199 251.629C821.703 250.784 821.206 249.939 820.694 249.069C818.329 244.784 816.189 240.378 814 236C813.67 255.8 813.34 275.6 813 296C808.38 296 803.76 296 799 296C798.977 285.587 798.959 275.173 798.948 264.76C798.943 259.925 798.936 255.09 798.925 250.255C798.914 245.593 798.908 240.931 798.905 236.269C798.903 234.487 798.9 232.704 798.894 230.921C798.887 228.433 798.886 225.945 798.887 223.457C798.883 222.713 798.879 221.968 798.876 221.201C798.891 213.885 801.189 214.753 807.813 214.625Z" fill="#1E1E1E"/>
<path d="M591 215C593.76 214.902 596.517 214.83 599.278 214.773C600.45 214.727 600.45 214.727 601.645 214.681C607.451 214.591 607.451 214.591 610.245 216.674C611.809 219.02 612.875 221.415 614 224C615.285 226.197 616.593 228.381 617.918 230.555C618.626 231.759 619.331 232.964 620.033 234.172C620.389 234.783 620.745 235.395 621.112 236.025C621.644 236.941 621.644 236.941 622.188 237.875C622.886 239.07 623.584 240.266 624.283 241.461C630.217 251.624 636.103 261.815 642 272C642 253.19 642 234.38 642 215C646.29 215 650.58 215 655 215C655 241.73 655 268.46 655 296C650.38 296 645.76 296 641 296C637.679 292.513 636.144 290.17 634 286C632.825 283.981 631.621 281.981 630.419 279.978C629.108 277.784 627.823 275.576 626.543 273.363C624.948 270.614 623.332 267.881 621.676 265.168C616.034 255.922 611.096 246.626 606 237C605.67 256.47 605.34 275.94 605 296C600.71 296 596.42 296 592 296C590.486 292.972 590.87 289.841 590.887 286.521C590.886 285.75 590.886 284.979 590.886 284.185C590.887 281.631 590.895 279.077 590.902 276.523C590.904 274.755 590.906 272.987 590.907 271.218C590.91 266.559 590.92 261.9 590.931 257.241C590.942 252.489 590.946 247.737 590.951 242.984C590.962 233.656 590.979 224.328 591 215Z" fill="#1E1E1E"/>
<path d="M540 215C546.6 215 553.2 215 560 215C560.447 216.414 560.895 217.828 561.355 219.285C565.475 232.293 565.475 232.293 569.75 245.25C571.091 249.233 572.384 253.216 573.562 257.25C574.562 260.659 575.701 263.982 576.938 267.312C578.85 272.471 580.487 277.689 582.07 282.957C582.704 285.032 583.389 287.093 584.117 289.137C585 292 585 292 585 296C580.05 296 575.1 296 570 296C567.385 289.778 565.257 283.699 563.613 277.152C563.199 275.037 563.199 275.037 562 274C560.075 273.842 558.145 273.749 556.215 273.684C554.46 273.621 554.46 273.621 552.67 273.557C551.438 273.517 550.207 273.478 548.938 273.438C547.702 273.394 546.466 273.351 545.193 273.307C542.129 273.2 539.065 273.098 536 273C535.886 273.562 535.772 274.124 535.655 274.703C534.089 282.12 531.629 288.875 529 296C524.38 296 519.76 296 515 296C515.637 289.254 517.757 283.099 519.875 276.688C520.582 274.525 521.287 272.362 521.992 270.199C522.335 269.15 522.677 268.102 523.03 267.021C523.91 264.279 524.752 261.53 525.57 258.77C528.196 249.922 531.301 241.241 534.395 232.549C536.442 226.745 538.269 220.906 540 215Z" fill="#1E1E1E"/>
<path d="M1235 216C1235 220.29 1235 224.58 1235 229C1233.6 228.856 1232.2 228.711 1230.75 228.563C1229.57 228.441 1229.57 228.441 1228.36 228.316C1226 228 1226 228 1224.15 227.484C1216.37 225.733 1207.01 225.927 1199.93 229.742C1193.02 234.252 1188.87 238.907 1186.42 246.895C1184.52 256.439 1186 266.008 1191.43 274.137C1195.85 279.593 1199.99 282.089 1207 283C1209.77 283.133 1212.54 283.14 1215.31 283.125C1216.04 283.129 1216.77 283.133 1217.52 283.137C1221.05 283.454 1221.05 283.454 1224 282C1224.09 280.657 1224.11 279.31 1224.1 277.965C1224.09 277.156 1224.09 276.347 1224.09 275.514C1224.08 274.664 1224.07 273.813 1224.06 272.938C1224.06 272.084 1224.05 271.23 1224.05 270.35C1224.04 268.233 1224.02 266.117 1224 264C1219.71 263.67 1215.42 263.34 1211 263C1211 259.04 1211 255.08 1211 251C1220.24 251 1229.48 251 1239 251C1239 264.53 1239 278.06 1239 292C1229.26 295.247 1221.82 296.224 1211.75 296.313C1210.67 296.342 1209.59 296.371 1208.47 296.4C1196.76 296.492 1188.64 292.771 1180 285C1171.31 276.311 1169.7 264.605 1169.68 252.95C1169.87 241.716 1173.84 233.384 1181.59 225.352C1195.38 212.565 1217.49 210.811 1235 216Z" fill="#1E1E1E"/>
<path d="M1055 215C1070.84 215 1086.68 215 1103 215C1103 218.96 1103 222.92 1103 227C1092.11 227 1081.22 227 1070 227C1070 233.93 1070 240.86 1070 248C1080.23 248 1090.46 248 1101 248C1101 251.96 1101 255.92 1101 260C1090.77 260 1080.54 260 1070 260C1070 267.59 1070 275.18 1070 283C1081.22 283 1092.44 283 1104 283C1104 287.29 1104 291.58 1104 296C1087.83 296 1071.66 296 1055 296C1055 269.27 1055 242.54 1055 215Z" fill="#1E1E1E"/>
<path d="M1313 225C1320.98 227.668 1325.57 233.265 1329.31 240.563C1332.42 251.597 1332.44 263.747 1327 274C1323.6 278.957 1319.88 283.258 1314 285C1307.72 285.797 1301.87 286.248 1296.5 282.5C1290.76 277.362 1286.57 270.468 1285.76 262.713C1284.65 241.566 1284.65 241.566 1291 234C1297.83 226.962 1303.03 223.733 1313 225Z" fill="#A51C30"/>
<path d="M942.488 225.82C948.564 228.741 951.921 233.105 955 239C955.376 239.717 955.753 240.434 956.141 241.172C957.413 245.36 957.329 249.397 957.312 253.75C957.329 254.606 957.345 255.462 957.361 256.344C957.368 265.008 955.299 272.482 949.785 279.27C945.087 283.824 939.732 285.221 933.312 285.5C928.437 285.29 925.693 284.35 922 281C921.488 280.537 920.976 280.075 920.449 279.598C913.678 272.725 911.787 263.827 911.5 254.438C911.745 245.896 913.572 237.081 920 231C926.952 224.95 933.523 222.865 942.488 225.82Z" fill="#A51C30"/>
<path d="M762.57 226.172C770.225 231.073 774.803 237.146 777 246C778.06 257.388 777.829 268.849 770.25 278C765.306 283.025 760.932 285.104 753.875 285.312C747.54 285.092 743.681 283.32 739 279C731.28 269.237 730.796 257.977 732 246C733.789 237.533 738.82 231.04 745.75 226C751.45 224.246 757.022 223.642 762.57 226.172Z" fill="#A51C30"/>
<path d="M1018.35 213.867C1019.63 213.865 1019.63 213.865 1020.93 213.863C1021.82 213.867 1022.71 213.871 1023.62 213.875C1024.49 213.871 1025.35 213.867 1026.25 213.863C1041.89 213.887 1041.89 213.887 1044 216C1043.62 220.589 1043.23 223.944 1041 228C1039.8 227.835 1038.61 227.67 1037.38 227.5C1033.17 227.053 1028.98 226.808 1024.75 226.688C1023.01 226.631 1023.01 226.631 1021.23 226.574C1017.32 227.089 1015.74 228.2 1013 231C1011.79 234.91 1011.47 236.932 1013.31 240.625C1017.14 244.007 1021.39 245.875 1026 248C1043.31 256.197 1043.31 256.197 1047.3 263.922C1049.31 269.918 1048.67 276.093 1046.31 281.875C1042.18 289.953 1035.94 293.024 1027.88 296.25C1016.51 298.45 1006.74 296.658 996 293C996.33 289.37 996.66 285.74 997 282C1002.52 280.896 1002.52 280.896 1006.12 282.438C1012.6 284.781 1019.56 285.242 1026.06 282.688C1029.21 281.17 1029.21 281.17 1031 278C1031.39 275.855 1031.39 275.855 1031.38 273.562C1031.42 272.42 1031.42 272.42 1031.46 271.254C1030.79 267.979 1029.65 267.059 1027 265C1023.98 263.411 1020.87 262.056 1017.75 260.688C1009.69 257.007 1003.44 253.51 998 246.375C996.076 239.883 996.009 232.921 998.188 226.5C1003.18 219.615 1009.53 213.88 1018.35 213.867Z" fill="#1E1E1E"/>
<path d="M659 215C679.13 215 699.26 215 720 215C720 218.96 720 222.92 720 227C719 228 719 228 716.867 228.114C715.951 228.108 715.034 228.103 714.09 228.098C713.1 228.094 712.111 228.091 711.092 228.088C710.051 228.08 709.01 228.071 707.938 228.062C706.893 228.058 705.848 228.053 704.771 228.049C702.181 228.037 699.59 228.021 697 228C697.002 228.837 697.004 229.674 697.007 230.537C697.027 238.41 697.042 246.282 697.052 254.155C697.057 258.203 697.064 262.251 697.075 266.299C697.086 270.202 697.092 274.106 697.095 278.009C697.097 279.501 697.1 280.994 697.106 282.486C697.113 284.569 697.114 286.653 697.114 288.736C697.116 289.924 697.118 291.112 697.12 292.336C697 295 697 295 696 296C691.38 296 686.76 296 682 296C682 273.56 682 251.12 682 228C674.41 228 666.82 228 659 228C659 223.71 659 219.42 659 215Z" fill="#1E1E1E"/>
<path d="M875 215C879.95 215 884.9 215 890 215C890 241.73 890 268.46 890 296C885.05 296 880.1 296 875 296C875 269.27 875 242.54 875 215Z" fill="#1E1E1E"/>
<path d="M1248 215C1252.95 215 1257.9 215 1263 215C1263 241.73 1263 268.46 1263 296C1258.38 296 1253.76 296 1249 296C1247.28 294.28 1247.88 292.091 1247.88 289.799C1247.88 289.054 1247.88 288.31 1247.89 287.543C1247.89 286.762 1247.89 285.982 1247.89 285.178C1247.89 282.586 1247.89 279.994 1247.9 277.402C1247.9 275.61 1247.91 273.818 1247.91 272.026C1247.91 267.299 1247.92 262.573 1247.93 257.846C1247.94 253.027 1247.95 248.208 1247.95 243.389C1247.96 233.926 1247.98 224.463 1248 215Z" fill="#1E1E1E"/>
<path d="M392 214C397.439 216.56 400.718 220.515 403 226C404.147 231.714 402.969 236.32 400.145 241.34C397.903 244.592 395.684 245.772 392 247C387.356 247.48 383.353 247.677 379.125 245.563C375.308 240.96 372.818 235.858 372.562 229.813C373.202 224.238 374.826 220.813 379.062 217.188C383.395 213.961 386.644 213.309 392 214Z" fill="#A51C30"/>
<path d="M382 260C386.388 262.278 389.241 264.92 392 269C393.157 275.645 392.798 282.555 389.258 288.41C386.71 291.631 384.126 293.592 380.047 294.375C374.951 294.686 371.923 293.388 368 290C364.058 286.058 363.628 282.507 363.375 277.125C363.535 271.296 364.503 267.861 368.297 263.453C372.44 259.918 376.64 259.162 382 260Z" fill="#A51C30"/>
<path d="M420 215C422.563 214.919 425.124 214.859 427.688 214.812C428.409 214.787 429.13 214.762 429.873 214.736C434.49 214.673 437.327 215.171 441 218C444.773 221.875 445.346 225.204 445.563 230.437C445.392 235.432 444.907 238.927 441.527 242.699C435.108 248.166 428.027 247.326 420 247C418.841 242.399 418.848 237.961 418.875 233.25C418.878 232.05 418.878 232.05 418.881 230.827C418.92 225.485 419.216 220.29 420 215Z" fill="#A51C30"/>
<path d="M830 311C833.225 312.644 835.19 314.932 837.375 317.813C838.856 322.996 838.55 327.392 836.375 332.25C834.23 336.061 832.037 338.137 828 340C823.921 340.769 820.849 340.491 817.187 338.375C812.503 333.289 811.239 328.588 811.473 321.77C812.245 317.712 813.815 315.297 816.734 312.414C821.006 309.748 825.198 309.894 830 311Z" fill="#A51C30"/>
<path d="M1019 311C1021.23 310.919 1023.46 310.861 1025.69 310.812C1027.55 310.76 1027.55 310.76 1029.45 310.707C1034.32 311.109 1036.76 312.833 1040.25 316.125C1042.63 320.033 1043.19 323.449 1043 328C1041.28 333.275 1038.4 335.86 1034 339C1030.92 340.037 1028.05 340.135 1024.81 340.125C1023.93 340.128 1023.05 340.13 1022.14 340.133C1020 340 1020 340 1019 339C1018.91 336.927 1018.89 334.852 1018.9 332.777C1018.91 331.517 1018.91 330.257 1018.91 328.959C1018.92 327.618 1018.93 326.278 1018.94 324.938C1018.94 323.593 1018.95 322.249 1018.95 320.904C1018.96 317.603 1018.98 314.301 1019 311Z" fill="#A51C30"/>
<path d="M1129.04 224.867C1143.76 224.912 1143.76 224.912 1150 231C1152 235.009 1151.77 239.666 1151 244C1148.59 247.263 1145.59 249.205 1142 251C1139.28 251.072 1136.59 251.093 1133.88 251.062C1133.12 251.058 1132.37 251.053 1131.59 251.049C1129.73 251.037 1127.86 251.019 1126 251C1125.97 246.854 1125.95 242.708 1125.94 238.562C1125.93 237.378 1125.92 236.194 1125.91 234.975C1125.91 233.85 1125.91 232.725 1125.9 231.566C1125.9 230.524 1125.89 229.482 1125.89 228.408C1126.03 225.404 1126.05 225.062 1129.04 224.867Z" fill="#A51C30"/>
<path d="M320 215C326.551 216.638 329.38 221.811 332.773 227.402C333.649 228.909 334.515 230.422 335.375 231.938C336.901 234.598 338.428 237.259 340 240C340.33 231.75 340.66 223.5 341 215C350.9 215 360.8 215 371 215C371 215.99 371 216.98 371 218C368.03 218 365.06 218 362 218C362 227.57 362 237.14 362 247C360.68 247 359.36 247 358 247C358 237.43 358 227.86 358 218C354.7 218 351.4 218 348 218C347.01 217.67 346.02 217.34 345 217C344.67 226.9 344.34 236.8 344 247C334.741 244.685 328.763 229.909 324 222C323.67 230.25 323.34 238.5 323 247C322.01 247 321.02 247 320 247C320 236.44 320 225.88 320 215Z" fill="#1E1E1E"/>
<path d="M160 215C164.603 217.205 164.603 217.205 166 220C166.269 224.119 165.808 226.383 164 230C163.325 234.953 164.741 237.971 167.125 242.168C168 244 168 244 168 247C165.75 247.063 165.75 247.063 163 246C160.909 242.498 159.541 238.633 158.262 234.77C157.845 234.186 157.429 233.602 157 233C155.02 232.67 153.04 232.34 151 232C151 236.95 151 241.9 151 247C149.68 247 148.36 247 147 247C147 236.77 147 226.54 147 216C151.9 213.55 154.775 213.845 160 215Z" fill="#1E1E1E"/>
<path d="M206 215C217.721 214.228 217.721 214.228 222.312 217C224.463 220.824 225.102 223.713 224 228C221.557 231.037 219.234 232.844 216 235C210.655 235.327 210.655 235.327 208 234C208 238.29 208 242.58 208 247C206.68 247 205.36 247 204 247C203.942 242.604 203.906 238.209 203.875 233.812C203.858 232.567 203.841 231.321 203.824 230.037C203.818 228.835 203.811 227.633 203.805 226.395C203.794 225.29 203.784 224.185 203.773 223.046C204.003 219.963 204.692 217.782 206 215Z" fill="#1E1E1E"/>
<path d="M259 214C261.858 215.026 262.858 215.75 264.379 218.434C267.045 225.199 269.288 231.929 271 239C271.66 239 272.32 239 273 239C273.147 238.357 273.294 237.714 273.445 237.051C275.388 229.225 278.451 222.225 282 215C284.475 215.495 284.475 215.495 287 216C287.66 226.23 288.32 236.46 289 247C287.68 247 286.36 247 285 247C284.34 238.42 283.68 229.84 283 221C281.68 224.3 280.36 227.6 279 231C278.271 232.75 277.542 234.5 276.813 236.25C275.376 239.822 274.406 243.145 274 247C272.68 247 271.36 247 270 247C269.746 246.166 269.492 245.332 269.231 244.473C267.431 238.589 265.612 232.721 263.613 226.902C262.984 224.951 262.475 222.994 262 221C261.34 221 260.68 221 260 221C259.67 229.58 259.34 238.16 259 247C258.34 247 257.68 247 257 247C256.971 243.354 256.953 239.708 256.938 236.062C256.929 235.041 256.921 234.019 256.912 232.967C256.893 226.892 257.118 221.016 258 215C258.33 214.67 258.66 214.34 259 214Z" fill="#1E1E1E"/>
<path d="M548 229C548.66 229 549.32 229 550 229C552.484 236.359 554.948 243.726 557.312 251.125C557.802 252.645 557.802 252.645 558.301 254.195C559 257 559 257 559 262C552.73 262 546.46 262 540 262C540 256.556 540.527 253.836 542.312 248.875C544.611 242.332 546.451 235.765 548 229Z" fill="#A51C30"/>
<path d="M236 215C237.32 215 238.64 215 240 215C240.191 215.523 240.382 216.046 240.579 216.585C241.468 219.016 242.359 221.446 243.25 223.875C243.568 224.744 243.887 225.613 244.215 226.508C246.157 231.783 248.164 237.016 250.371 242.188C251 244 251 244 251 247C249.68 247 248.36 247 247 247C244 240.375 244 240.375 244 237C240.04 237 236.08 237 232 237C231.402 238.464 230.804 239.929 230.188 241.438C229.168 243.934 229.168 243.934 228 246C227.01 246.33 226.02 246.66 225 247C225.589 241.084 227.268 235.979 229.375 230.438C229.831 229.201 229.831 229.201 230.297 227.939C231.964 223.484 233.773 219.214 236 215Z" fill="#1E1E1E"/>
<path d="M431 261C433.378 261.236 433.378 261.236 436 262C437.178 263.838 437.178 263.838 437.949 266.227C438.24 267.094 438.531 267.962 438.83 268.855C439.113 269.769 439.396 270.683 439.688 271.625C439.982 272.516 440.277 273.406 440.58 274.324C441.416 276.875 442.215 279.434 443 282C443.322 283.024 443.322 283.024 443.651 284.069C444.619 287.254 445 289.616 445 293C442 292 442 292 441.051 290.152C440.367 288.102 439.684 286.051 439 284C434.71 283.67 430.42 283.34 426 283C425.691 284.279 425.381 285.558 425.062 286.875C424.524 289.101 424.026 290.947 423 293C422.01 292.67 421.02 292.34 420 292C421.074 288.518 422.161 285.04 423.25 281.562C423.55 280.589 423.851 279.615 424.16 278.611C426.069 272.54 428.265 266.749 431 261Z" fill="#1E1E1E"/>
<path d="M95 215C96.65 215.33 98.3 215.66 100 216C101.294 219.853 102.585 223.708 103.875 227.562C104.24 228.649 104.605 229.735 104.98 230.854C106.771 236.208 108.515 241.552 110 247C108.141 246.816 108.141 246.816 106 246C104.734 243.715 104.734 243.715 103.75 240.938C103.415 240.018 103.08 239.099 102.734 238.152C102.492 237.442 102.25 236.732 102 236C101.374 236.012 100.747 236.023 100.102 236.035C99.2843 236.044 98.467 236.053 97.625 236.062C96.8129 236.074 96.0008 236.086 95.1641 236.098C93 236 93 236 91 235C90.8969 235.681 90.7938 236.361 90.6875 237.062C89.8527 240.629 88.5053 243.662 87 247C86.01 247 85.02 247 84 247C85.0069 241.883 86.2252 237.032 88.1445 232.18C89.5273 228.657 90.7668 225.081 92.0352 221.516C92.9017 219.256 93.875 217.14 95 215Z" fill="#1E1E1E"/>
<path d="M392 214C397.439 216.56 400.718 220.515 403 226C404.147 231.714 402.969 236.32 400.145 241.34C397.903 244.592 395.684 245.772 392 247C387.356 247.48 383.353 247.677 379.125 245.563C375.308 240.96 372.818 235.858 372.562 229.813C373.202 224.238 374.826 220.813 379.062 217.188C383.395 213.961 386.644 213.309 392 214ZM378.324 222.578C376.059 226.72 376.165 230.436 377 235C378.633 239.641 380.688 242.55 385 245C389.276 245.078 392.038 244.265 395.375 241.688C399.327 237.641 399.348 233.733 399.285 228.25C398.729 223.862 396.153 221.193 393.188 218.125C386.573 214.724 382.52 217.261 378.324 222.578Z" fill="#1E1E1E"/>
<path d="M130 214.812C131.052 214.798 132.104 214.784 133.188 214.77C136 215 136 215 139 217C139 217.66 139 218.32 139 219C137.701 218.773 136.401 218.546 135.063 218.312C129.853 217.745 125.64 218.541 121 221C118.168 223.918 117.787 226.504 117.563 230.438C117.754 235.924 120.166 238.895 123.688 242.938C127.42 244.653 131.048 243.701 135 243C135.351 238.968 135.351 238.968 135 235C132.645 232.918 132.645 232.918 130 232C130.33 231.01 130.66 230.02 131 229C134.375 229.25 134.375 229.25 138 230C140.734 233.999 140.557 238.338 140 243C138.75 245.5 138.75 245.5 137 247C132.162 248.5 126.742 249.194 122 247.129C117.721 244.316 114.662 240.877 113 236C112.019 230.862 112.599 227.106 115.313 222.625C119.468 216.561 122.538 214.858 130 214.812Z" fill="#1E1E1E"/>
<path d="M382 260C386.388 262.278 389.241 264.92 392 269C393.157 275.645 392.798 282.555 389.258 288.41C386.71 291.631 384.126 293.592 380.047 294.375C374.951 294.686 371.923 293.388 368 290C364.058 286.058 363.628 282.507 363.375 277.125C363.535 271.296 364.503 267.861 368.297 263.453C372.44 259.918 376.64 259.162 382 260ZM369.164 267.395C366.097 271.625 366.426 277.022 367 282C368.654 285.442 368.654 285.442 371 288C371.433 288.619 371.866 289.238 372.312 289.875C375.216 291.811 377.627 291.407 381 291C385.719 288.319 387.408 285.112 389 280C389.727 275.892 389.948 272.554 387.723 268.906C384.627 265.213 382.652 263.223 377.75 262.563C373.298 263.082 372.092 264.224 369.164 267.395Z" fill="#1E1E1E"/>
<path d="M420 215C422.563 214.919 425.124 214.859 427.688 214.812C428.409 214.787 429.13 214.762 429.873 214.736C434.49 214.673 437.327 215.171 441 218C444.773 221.875 445.346 225.204 445.563 230.437C445.392 235.432 444.907 238.927 441.527 242.699C435.108 248.166 428.027 247.326 420 247C418.841 242.399 418.848 237.961 418.875 233.25C418.878 232.05 418.878 232.05 418.881 230.827C418.92 225.485 419.216 220.29 420 215ZM423 218C422.9 219.915 422.869 221.833 422.867 223.75C422.866 224.915 422.865 226.081 422.863 227.281C422.867 228.508 422.871 229.736 422.875 231C422.871 232.227 422.867 233.454 422.863 234.719C422.865 235.884 422.866 237.049 422.867 238.25C422.868 239.328 422.869 240.405 422.871 241.516C422.719 243.942 422.719 243.942 424 245C428.971 245.131 433.561 244.87 437.5 241.625C441.995 236.905 442.491 234.044 442.391 227.734C441.78 223.458 440.167 221.873 437 219C433.717 216.812 432.682 216.751 428.875 216.812C427.986 216.819 427.096 216.825 426.18 216.832C424.023 216.76 424.023 216.76 423 218Z" fill="#1E1E1E"/>
<path d="M755 311C756.727 311.121 756.727 311.121 759 312C760.614 313.999 761.998 315.912 763.375 318.062C766.753 323.197 770.298 328.064 774 333C774 326.07 774 319.14 774 312C774.99 311.67 775.98 311.34 777 311C777 320.24 777 329.48 777 339C772.024 337.756 770.724 335.396 768 331.375C767.575 330.77 767.149 330.166 766.711 329.543C763.87 325.457 761.493 321.362 759 317C758.67 324.26 758.34 331.52 758 339C756.68 339 755.36 339 754 339C753.901 329.609 753.87 320.343 755 311Z" fill="#1E1E1E"/>
<path d="M932 311C933.903 311.342 933.903 311.342 936 312C938.775 316.511 940.392 321.577 942.125 326.562C942.389 327.304 942.654 328.046 942.926 328.811C944.226 332.518 945.368 336.108 946 340C945.01 340 944.02 340 943 340C942.807 339.434 942.613 338.868 942.414 338.285C942.154 337.552 941.893 336.818 941.625 336.062C941.37 335.332 941.115 334.601 940.852 333.848C940.147 331.813 940.147 331.813 938 331C934.995 330.864 932.009 330.957 929 331C927.68 333.64 926.36 336.28 925 339C924.34 339 923.68 339 923 339C925.355 329.435 928.649 320.249 932 311Z" fill="#1E1E1E"/>
<path d="M1329 311C1331.49 311.97 1332.75 312.56 1334.09 314.926C1334.37 315.713 1334.65 316.501 1334.94 317.312C1335.42 318.639 1335.42 318.639 1335.92 319.992C1336.45 321.481 1336.45 321.481 1337 323C1337.92 325.313 1338.83 327.626 1339.75 329.938C1342 335.623 1342 335.623 1342 339C1341.01 338.67 1340.02 338.34 1339 338C1337.81 334.438 1337.81 334.438 1337 331C1333.04 331 1329.08 331 1325 331C1324.01 333.64 1323.02 336.28 1322 339C1321.01 339 1320.02 339 1319 339C1319.41 337.783 1319.82 336.566 1320.25 335.312C1321.94 330.282 1323.45 325.204 1324.94 320.113C1326.03 316.902 1327.42 313.998 1329 311Z" fill="#1E1E1E"/>
<path d="M669 311C672 312 672 312 673.875 315.125C677.396 322.602 680.148 330.94 682 339C681.01 338.67 680.02 338.34 679 338C678.649 337.01 678.299 336.02 677.938 335C676.353 331.819 676.353 331.819 673.656 331.348C668.683 330.696 668.683 330.696 664 332C662.946 334.31 661.943 336.643 661 339C660.34 339 659.68 339 659 339C659.539 335.445 660.636 332.499 662.109 329.234C663.711 325.217 664.833 321.042 666.035 316.891C667 314 667 314 669 311Z" fill="#1E1E1E"/>
<path d="M1233 312C1234.84 312.156 1234.84 312.156 1237 313C1238.38 315.406 1238.38 315.406 1239.56 318.5C1240.19 320.128 1240.19 320.128 1240.84 321.789C1242.3 325.837 1243.7 329.894 1245 334C1245.39 335.176 1245.78 336.351 1246.19 337.562C1246.46 338.367 1246.72 339.171 1247 340C1245.12 339.438 1245.12 339.438 1243 338C1241.75 334.375 1241.75 334.375 1241 331C1237.04 331 1233.08 331 1229 331C1228.01 333.64 1227.02 336.28 1226 339C1225.34 339 1224.68 339 1224 339C1224.75 332.375 1224.75 332.375 1227 329C1227.81 326.021 1228.46 323.023 1229.12 320.008C1230.02 316.943 1231.24 314.651 1233 312Z" fill="#1E1E1E"/>
<path d="M173 215C173.99 215 174.98 215 176 215C176.049 216.302 176.098 217.604 176.148 218.945C176.223 220.672 176.299 222.398 176.375 224.125C176.406 224.981 176.437 225.837 176.469 226.719C176.738 232.563 177.242 237.551 180.75 242.438C182.963 244.291 182.963 244.291 186.062 244C189.485 242.835 190.196 242.064 192 239C192.5 236.3 192.5 236.3 192.512 233.359C192.547 232.289 192.583 231.22 192.619 230.117C192.642 229.006 192.664 227.895 192.687 226.75C192.722 225.623 192.756 224.497 192.791 223.336C192.873 220.557 192.943 217.779 193 215C193.99 215 194.98 215 196 215C196.088 218.687 196.141 222.374 196.187 226.062C196.213 227.101 196.238 228.139 196.264 229.209C196.33 236.125 195.979 241.448 191.375 246.938C187.599 248.627 184.052 248.767 180 248C175.727 244.909 174.252 242.031 173 237C172.766 233.204 172.811 229.426 172.875 225.625C172.884 224.603 172.893 223.581 172.902 222.527C172.926 220.018 172.959 217.509 173 215Z" fill="#1E1E1E"/>
<path d="M1019 311C1021.23 310.919 1023.46 310.861 1025.69 310.812C1027.55 310.76 1027.55 310.76 1029.45 310.707C1034.32 311.109 1036.76 312.833 1040.25 316.125C1042.63 320.033 1043.19 323.449 1043 328C1041.28 333.275 1038.4 335.86 1034 339C1030.92 340.037 1028.05 340.135 1024.81 340.125C1023.93 340.128 1023.05 340.13 1022.14 340.133C1020 340 1020 340 1019 339C1018.91 336.927 1018.89 334.852 1018.9 332.777C1018.91 331.517 1018.91 330.257 1018.91 328.959C1018.92 327.618 1018.93 326.278 1018.94 324.938C1018.94 323.593 1018.95 322.249 1018.95 320.904C1018.96 317.603 1018.98 314.301 1019 311ZM1022 314C1021.9 315.623 1021.87 317.249 1021.87 318.875C1021.87 319.86 1021.86 320.845 1021.86 321.859C1021.87 322.896 1021.87 323.932 1021.87 325C1021.87 326.036 1021.87 327.073 1021.86 328.141C1021.86 329.125 1021.87 330.11 1021.87 331.125C1021.87 332.035 1021.87 332.945 1021.87 333.883C1021.76 335.985 1021.76 335.985 1023 337C1028.56 337.377 1032.23 337.219 1037 334C1039.9 330.614 1040.59 327.464 1040.42 322.996C1039.52 318.735 1036.59 316.203 1033.19 313.625C1030.11 312.746 1024.38 311.616 1022 314Z" fill="#1E1E1E"/>
<path d="M289 261C294.94 261 300.88 261 307 261C307 261.66 307 262.32 307 263C302.38 263 297.76 263 293 263C293 266.96 293 270.92 293 275C297.29 275 301.58 275 306 275C306 275.99 306 276.98 306 278C299.565 278.495 299.565 278.495 293 279C293 282.3 293 285.6 293 289C299.93 289.495 299.93 289.495 307 290C306.67 290.99 306.34 291.98 306 293C300.39 293 294.78 293 289 293C289 282.44 289 271.88 289 261Z" fill="#1E1E1E"/>
<path d="M300.598 214.902C302.086 214.909 303.574 214.921 305.062 214.938C305.821 214.942 306.58 214.947 307.361 214.951C309.241 214.963 311.12 214.981 313 215C313 215.99 313 216.98 313 218C306.565 218.495 306.565 218.495 300 219C299.67 222.3 299.34 225.6 299 229C300.32 228.67 301.64 228.34 303 228C304.582 227.935 306.167 227.914 307.75 227.938C308.549 227.947 309.348 227.956 310.172 227.965C310.775 227.976 311.378 227.988 312 228C312 229.32 312 230.64 312 232C308.04 232 304.08 232 300 232C299.979 233.794 299.959 235.589 299.937 237.438C299.926 238.447 299.914 239.456 299.902 240.496C299.714 242.94 299.714 242.94 301 244C303.183 244.235 305.372 244.414 307.562 244.562C308.76 244.646 309.958 244.73 311.191 244.816C312.582 244.907 312.582 244.907 314 245C314 245.66 314 246.32 314 247C311.187 247.027 308.375 247.047 305.562 247.062C304.76 247.071 303.958 247.079 303.131 247.088C301.087 247.097 299.043 247.052 297 247C295.117 245.117 295.869 241.881 295.867 239.375C295.866 238.713 295.865 238.051 295.864 237.369C295.864 235.966 295.865 234.564 295.87 233.162C295.875 231.009 295.87 228.856 295.863 226.703C295.864 225.344 295.865 223.984 295.867 222.625C295.868 221.38 295.869 220.135 295.871 218.852C296.063 214.618 296.226 215.021 300.598 214.902Z" fill="#1E1E1E"/>
<path d="M830 311C833.225 312.644 835.19 314.932 837.375 317.813C838.856 322.996 838.55 327.392 836.375 332.25C834.23 336.061 832.037 338.137 828 340C823.921 340.769 820.849 340.491 817.187 338.375C812.503 333.289 811.239 328.588 811.473 321.77C812.245 317.712 813.815 315.297 816.734 312.414C821.006 309.748 825.198 309.894 830 311ZM816.109 316.047C813.523 320.601 814.18 326.005 815 331C816.267 334.229 817.059 334.856 820 337C824.02 337.94 827.094 337.374 830.875 335.813C834.013 333.136 834.736 330.928 835.289 326.887C835.561 322.631 835.377 319.87 832.625 316.5C829.597 313.617 828.861 313.099 824.75 312.625C821.111 312.989 818.824 313.507 816.109 316.047Z" fill="#1E1E1E"/>
<path d="M772 195C771.456 200.574 766.283 204.23 762.301 207.691C758.563 210.594 755.431 210.952 750.766 210.387C750.183 210.259 749.6 210.132 749 210C750.866 196.551 759.775 193.455 772 195Z" fill="#1E1E1E"/>
<path d="M359 260C359 260.99 359 261.98 359 263C358.264 263.026 357.528 263.052 356.77 263.078C350.642 263.42 350.642 263.42 345 265.625C341.792 269.434 340.265 273.145 339.562 278.063C340.25 282.678 342.627 285.529 345.75 288.875C349.253 290.627 352.1 290.248 356 290C356.99 289.67 357.98 289.34 359 289C358.01 291.475 358.01 291.475 357 294C352.129 294.347 348.196 294.542 343.688 292.5C338.615 287.781 335.734 283.566 335.312 276.5C335.599 270.6 337.752 267.003 342 263C347.225 259.112 352.761 259.7 359 260Z" fill="#1E1E1E"/>
<path d="M1097 196C1095.47 199.628 1093.29 201.943 1090.5 204.688C1089.71 205.475 1088.91 206.263 1088.09 207.074C1084.76 210.142 1082.82 210.114 1078.38 210.063C1077.37 210.053 1076.37 210.044 1075.34 210.035C1074.57 210.024 1073.79 210.012 1073 210C1077.92 196.99 1083.74 194.618 1097 196Z" fill="#1E1E1E"/>
<path d="M452 215C457.61 215 463.22 215 469 215C469 215.99 469 216.98 469 218C464.38 218 459.76 218 455 218C455 221.63 455 225.26 455 229C459.29 229 463.58 229 468 229C468 229.66 468 230.32 468 231C464.04 231.33 460.08 231.66 456 232C456 235.96 456 239.92 456 244C462.93 244.495 462.93 244.495 470 245C470 245.66 470 246.32 470 247C467.187 247.027 464.375 247.047 461.562 247.062C460.76 247.071 459.958 247.079 459.131 247.088C457.087 247.097 455.043 247.052 453 247C452 246 452 246 451.886 243.041C451.892 241.747 451.897 240.454 451.902 239.121C451.904 238.434 451.905 237.748 451.907 237.04C451.912 234.839 451.925 232.638 451.938 230.438C451.943 228.949 451.947 227.46 451.951 225.971C451.961 222.314 451.981 218.657 452 215Z" fill="#1E1E1E"/>
<path d="M341 215C350.9 215 360.8 215 371 215C371 215.99 371 216.98 371 218C368.03 218 365.06 218 362 218C362 227.57 362 237.14 362 247C360.68 247 359.36 247 358 247C358 237.43 358 227.86 358 218C354.7 218 351.4 218 348 218C343.875 217 343.875 217 341 216C341 215.67 341 215.34 341 215Z" fill="#1E1E1E"/>
<path d="M1187 312C1187 312.66 1187 313.32 1187 314C1186.26 313.977 1185.53 313.954 1184.77 313.93C1183.31 313.903 1183.31 313.903 1181.81 313.875C1180.37 313.84 1180.37 313.84 1178.89 313.805C1175.83 314.011 1173.73 314.621 1171 316C1168.36 320.141 1168.28 325.241 1169 330C1170.79 332.87 1171.98 334.491 1175 336C1176.48 336.095 1177.96 336.13 1179.44 336.125C1180.22 336.128 1181 336.13 1181.81 336.133C1184.18 336.084 1184.18 336.084 1187 335C1187 332.69 1187 330.38 1187 328C1185.35 327.67 1183.7 327.34 1182 327C1181.67 326.01 1181.34 325.02 1181 324C1183.88 323.875 1183.88 323.875 1187 324C1189.59 326.586 1189.36 327.841 1189.44 331.438C1189.31 336.645 1189.31 336.645 1187.06 339.188C1181.45 340.677 1176.98 340.971 1171.69 338.375C1167.4 334.582 1165.23 331.834 1164.5 326.063C1164.76 321.661 1166.13 318.349 1169 315C1173.85 310.739 1181.02 309.012 1187 312Z" fill="#1E1E1E"/>
<path d="M1081.38 310.902C1082.77 310.909 1084.17 310.921 1085.56 310.938C1086.27 310.942 1086.98 310.947 1087.72 310.951C1089.48 310.963 1091.24 310.981 1093 311C1093 311.99 1093 312.98 1093 314C1088.71 314 1084.42 314 1080 314C1080.33 316.97 1080.66 319.94 1081 323C1084.63 323 1088.26 323 1092 323C1092 323.99 1092 324.98 1092 326C1088.04 326 1084.08 326 1080 326C1080.33 329.3 1080.66 332.6 1081 336C1084.96 336.33 1088.92 336.66 1093 337C1093 337.66 1093 338.32 1093 339C1087.72 339 1082.44 339 1077 339C1076.97 334.521 1076.95 330.042 1076.94 325.562C1076.93 324.283 1076.92 323.004 1076.91 321.686C1076.91 320.471 1076.91 319.256 1076.9 318.004C1076.9 316.878 1076.89 315.752 1076.89 314.592C1077.06 310.669 1077.34 311.019 1081.38 310.902Z" fill="#1E1E1E"/>
<path d="M462.25 260.812C463.866 260.853 463.866 260.853 465.516 260.894C466.335 260.929 467.155 260.964 468 261C468 261.66 468 262.32 468 263C466.952 263.091 466.952 263.091 465.883 263.184C464.973 263.267 464.063 263.351 463.125 263.437C462.22 263.519 461.315 263.6 460.383 263.684C457.989 263.87 457.989 263.87 456 265C456 267.31 456 269.62 456 272C457.156 272.615 457.156 272.615 458.336 273.242C459.339 273.781 460.342 274.32 461.375 274.875C462.373 275.409 463.37 275.942 464.398 276.492C467 278 467 278 469 280C469.542 284.724 469.659 286.91 467.188 291C462.657 293.843 458.231 293.972 453 293C451.164 291.469 451.164 291.469 450 290C450.831 290.012 451.663 290.023 452.52 290.035C454.15 290.049 454.15 290.049 455.812 290.062C456.891 290.074 457.97 290.086 459.082 290.098C462.065 290.136 462.065 290.136 465 289C465.838 285.758 465.838 285.758 465 282C461.925 279.492 458.525 277.793 455 276C454.01 275.34 453.02 274.68 452 274C451.566 271.723 451.566 271.723 451.562 269.062C451.543 268.187 451.524 267.312 451.504 266.41C452 264 452 264 453.637 262.195C456.673 260.659 458.864 260.702 462.25 260.812Z" fill="#1E1E1E"/>
<path d="M323.25 260.75C324.328 260.786 325.405 260.822 326.516 260.859C327.745 260.929 327.745 260.929 329 261C329 261.66 329 262.32 329 263C328.229 263.049 327.458 263.098 326.664 263.148C325.661 263.223 324.658 263.298 323.625 263.375C322.627 263.445 321.629 263.514 320.602 263.586C317.845 263.764 317.845 263.764 316 266C315.908 268.486 315.908 268.486 317 271C319.402 273.016 319.402 273.016 322.375 274.625C328.98 278.476 328.98 278.476 331 281C331.579 284.808 331.331 286.479 329.25 289.75C325.89 293.11 324.221 293.914 319.437 294.25C316 294 316 294 313 292C313 291.01 313 290.02 313 289C314.083 289.526 314.083 289.526 315.187 290.062C319.321 291.44 321.972 290.343 326 289C326.33 286.69 326.66 284.38 327 282C326.241 281.529 325.481 281.059 324.699 280.574C323.705 279.952 322.711 279.329 321.687 278.687C320.701 278.073 319.715 277.458 318.699 276.824C314.646 274.085 314.646 274.085 313 272C312.511 268.16 312.288 265.961 314.637 262.793C317.696 260.472 319.456 260.585 323.25 260.75Z" fill="#1E1E1E"/>
<path d="M209 217C215.25 216.519 215.25 216.519 218.438 218.563C220.62 221.967 220.637 224.034 220 228C217.938 230.438 217.938 230.438 215 232C211.188 232.25 211.188 232.25 208 232C207.973 229.875 207.954 227.75 207.938 225.625C207.926 224.442 207.914 223.258 207.902 222.039C208 219 208 219 209 217Z" fill="#A51C30"/>
<path d="M154.812 216.625C158.815 217.096 160.396 217.922 163 221C163 224.625 163 224.625 162 228C158.911 230.059 158.291 230.239 154.812 230.125C152.925 230.063 152.925 230.063 151 230C149.823 227.647 149.834 226.119 149.812 223.5C149.798 222.706 149.784 221.912 149.77 221.094C150.152 217.622 151.493 217.068 154.812 216.625Z" fill="#A51C30"/>
<path d="M399 261C399.99 261 400.98 261 402 261C402.025 261.635 402.05 262.27 402.076 262.924C402.193 265.825 402.315 268.725 402.437 271.625C402.477 272.624 402.516 273.623 402.557 274.652C402.766 279.51 403.03 284.221 404 289C407.63 289.33 411.26 289.66 415 290C414.67 290.99 414.34 291.98 414 293C411.688 293.027 409.375 293.046 407.062 293.062C405.775 293.074 404.487 293.086 403.16 293.098C400 293 400 293 399 292C398.912 289.708 398.893 287.414 398.902 285.121C398.904 284.434 398.905 283.748 398.907 283.04C398.912 280.839 398.925 278.638 398.937 276.438C398.943 274.949 398.947 273.46 398.951 271.971C398.962 268.314 398.979 264.657 399 261Z" fill="#1E1E1E"/>
<path d="M514 311C514.99 311 515.98 311 517 311C517.202 311.59 517.403 312.18 517.611 312.788C518.528 315.465 519.451 318.139 520.375 320.812C520.692 321.741 521.009 322.67 521.336 323.627C521.645 324.52 521.955 325.412 522.273 326.332C522.556 327.154 522.839 327.976 523.13 328.823C524.006 331.233 524.006 331.233 526 334C528.363 327.973 530.217 321.903 531.938 315.66C532.463 314.343 532.463 314.343 533 313C533.99 312.67 534.98 312.34 536 312C535.342 317.59 533.481 322.524 531.5 327.75C531.179 328.612 530.858 329.475 530.527 330.363C528.179 336.642 528.179 336.642 527 339C525.116 338.732 525.116 338.732 523 338C521.935 336.377 521.935 336.377 521.148 334.281C520.708 333.129 520.708 333.129 520.258 331.953C519.966 331.144 519.675 330.334 519.375 329.5C519.076 328.721 518.777 327.943 518.469 327.141C516.48 321.827 515.123 316.56 514 311Z" fill="#1E1E1E"/>
<path d="M870 311C870.99 311 871.98 311 873 311C876.007 318.583 878.817 326.136 881 334C883.13 331.87 883.572 330.746 884.473 327.938C884.862 326.743 884.862 326.743 885.26 325.523C885.525 324.691 885.79 323.858 886.062 323C886.594 321.354 887.126 319.708 887.66 318.062C887.894 317.332 888.127 316.601 888.367 315.848C889 314 889 314 890 312C890.66 312 891.32 312 892 312C890.354 321.215 887.194 330.612 883 339C881.125 338.766 881.125 338.766 879 338C877.875 336.172 877.875 336.172 877 333.75C876.511 332.408 876.511 332.408 876.012 331.039C873.809 324.422 871.623 317.787 870 311Z" fill="#1E1E1E"/>
<path d="M610 312C611.32 312 612.64 312 614 312C614 320.25 614 328.5 614 337C617.96 337 621.92 337 626 337C626 337.66 626 338.32 626 339C620.72 339 615.44 339 610 339C610 330.09 610 321.18 610 312Z" fill="#1E1E1E"/>
<path d="M570 311C571.32 311 572.64 311 574 311C574 320.24 574 329.48 574 339C572.68 339 571.36 339 570 339C570 329.76 570 320.52 570 311Z" fill="#1E1E1E"/>
<path d="M433 265C435 266 435 266 435.852 268.363C436.107 269.337 436.362 270.31 436.625 271.312C436.885 272.278 437.146 273.244 437.414 274.238C438 277 438 277 438 281C434.7 281 431.4 281 428 281C428.444 274.79 429.915 270.395 433 265Z" fill="#A51C30"/>
<path d="M1329 315C1332 316 1332 316 1332.95 317.672C1334.33 321.563 1335.39 324.802 1335 329C1332.36 329 1329.72 329 1327 329C1325.18 323.872 1327.14 319.823 1329 315Z" fill="#A51C30"/>
<path d="M236 220C237.32 220.33 238.64 220.66 240 221C241.452 225.537 242.235 229.181 242 234C239.03 234 236.06 234 233 234C233.596 229.131 234.57 224.672 236 220Z" fill="#A51C30"/>
<path d="M1233 315C1236 316 1236 316 1237.69 319.188C1239.02 322.535 1239.26 325.385 1239 329C1236.36 329 1233.72 329 1231 329C1229.18 323.872 1231.14 319.823 1233 315Z" fill="#A51C30"/>
<path d="M1281 311C1281.99 311 1282.98 311 1284 311C1284 320.57 1284 330.14 1284 340C1283.01 340 1282.02 340 1281 340C1281 330.43 1281 320.86 1281 311Z" fill="#1E1E1E"/>
<path d="M669 315C669.66 315 670.32 315 671 315C673.985 319.477 675 323.638 675 329C672.36 329 669.72 329 667 329C665.18 323.872 667.14 319.823 669 315Z" fill="#A51C30"/>
<path d="M646 241C646.66 241 647.32 241 648 241C648.087 244.271 648.14 247.541 648.188 250.812C648.225 252.206 648.225 252.206 648.264 253.627C648.273 254.52 648.283 255.412 648.293 256.332C648.309 257.154 648.324 257.976 648.341 258.823C647.921 261.505 647.145 262.387 645 264C644.34 264 643.68 264 643 264C642.651 255.744 643.056 248.763 646 241Z" fill="#1E1E1E"/>
<path d="M933 315C933.66 315 934.32 315 935 315C935.673 316.769 936.338 318.54 937 320.312C937.371 321.299 937.743 322.285 938.125 323.301C939 326 939 326 939 329C936.36 329 933.72 329 931 329C929.18 323.872 931.14 319.823 933 315Z" fill="#A51C30"/>
<path d="M96 220C96.99 220.33 97.98 220.66 99 221C100.808 225.092 101.212 228.557 101 233C96.545 233.495 96.545 233.495 92 234C92.6316 228.947 94.1346 224.704 96 220Z" fill="#A51C30"/>
<path d="M890 312C890.66 312 891.32 312 892 312C890.917 318.066 889.143 323.678 887 329.438C886.608 330.503 886.608 330.503 886.208 331.59C884.25 336.75 884.25 336.75 882 339C880.818 335.515 880.929 335.144 882.687 331.562C883.059 330.881 883.43 330.199 883.812 329.496C885.756 325.41 886.905 321.093 888.168 316.758C889 314 889 314 890 312Z" fill="#1E1E1E"/>
<path d="M756 311C759.904 312.301 760.817 314.117 763.188 317.438C763.903 318.426 764.618 319.415 765.355 320.434C767 323 767 323 767 325C766.01 325.33 765.02 325.66 764 326C763.162 324.545 762.329 323.086 761.5 321.625C760.804 320.407 760.804 320.407 760.094 319.164C759 317 759 317 759 315C758.01 314.67 757.02 314.34 756 314C756 313.01 756 312.02 756 311Z" fill="#1E1E1E"/>
<path d="M1078 311C1082.95 311 1087.9 311 1093 311C1093 311.99 1093 312.98 1093 314C1091.06 314.081 1089.13 314.139 1087.19 314.188C1086.11 314.222 1085.03 314.257 1083.92 314.293C1081 314 1081 314 1078 311Z" fill="#1E1E1E"/>
<path d="M339 281C343 286 343 286 347 291C345.68 291.33 344.36 291.66 343 292C339.389 288.212 339.389 288.212 338 286C338.188 283.125 338.188 283.125 339 281Z" fill="#1E1E1E"/>
<path d="M915 272C917.12 274.615 919.131 277.196 921 280C918.379 280 916.491 279.687 914 279C913.375 276.625 913.375 276.625 913 274C913.66 273.34 914.32 272.68 915 272Z" fill="#1E1E1E"/>
<path d="M1019 311C1021 312 1021 312 1021.62 313.641C1022.11 316.703 1022.09 319.65 1022.06 322.75C1022.05 323.92 1022.04 325.091 1022.04 326.297C1022.02 327.189 1022.01 328.081 1022 329C1021.67 329 1021.34 329 1021 329C1021 326.36 1021 323.72 1021 321C1020.34 321 1019.68 321 1019 321C1019 317.7 1019 314.4 1019 311Z" fill="#1E1E1E"/>
<path d="M1040 320C1041.49 320.99 1041.49 320.99 1043 322C1042.67 324.97 1042.34 327.94 1042 331C1041.34 331 1040.68 331 1040 331C1040 327.37 1040 323.74 1040 320Z" fill="#1E1E1E"/>
<path d="M131 229C133.31 229.33 135.62 229.66 138 230C137.34 231.65 136.68 233.3 136 235C134.02 234.01 132.04 233.02 130 232C130.33 231.01 130.66 230.02 131 229Z" fill="#1E1E1E"/>
<path d="M658 215C658.33 215 658.66 215 659 215C659 218.96 659 222.92 659 227C658.01 226.67 657.02 226.34 656 226C655.714 218.571 655.714 218.571 658 215Z" fill="#1E1E1E"/>
<path d="M220 220C221.32 220 222.64 220 224 220C224 222.64 224 225.28 224 228C223.01 228 222.02 228 221 228C220.67 225.36 220.34 222.72 220 220Z" fill="#1E1E1E"/>
<path d="M1232 313C1233.08 316.227 1232.95 317.981 1231.69 321.125C1231.42 321.808 1231.16 322.491 1230.89 323.195C1230 325 1230 325 1228 327C1228.63 321.947 1230.13 317.704 1232 313Z" fill="#1E1E1E"/>
<path d="M583 292C583.66 292 584.32 292 585 292C585 293.32 585 294.64 585 296C580.05 296 575.1 296 570 296C570 295.67 570 295.34 570 295C570.855 294.951 571.709 294.902 572.59 294.852C573.695 294.777 574.799 294.702 575.938 294.625C577.591 294.521 577.591 294.521 579.277 294.414C580.625 294.209 580.625 294.209 582 294C582.33 293.34 582.66 292.68 583 292Z" fill="#1E1E1E"/>
<path d="M307 290C306.67 290.99 306.34 291.98 306 293C302.37 292.67 298.74 292.34 295 292C295 291.67 295 291.34 295 291C299.041 290.366 302.907 289.876 307 290Z" fill="#1E1E1E"/>
<path d="M830 311C830.33 311.99 830.66 312.98 831 314C827.37 313.67 823.74 313.34 820 313C823.644 310.57 825.712 310.838 830 311Z" fill="#1E1E1E"/>
<path d="M622 256C622.66 256.66 623.32 257.32 624 258C623.625 261.125 623.625 261.125 623 264C622.34 264 621.68 264 621 264C620.375 261.688 620.375 261.688 620 259C620.66 258.01 621.32 257.02 622 256Z" fill="#1E1E1E"/>
<path d="M313 289C315.97 289.99 318.94 290.98 322 292C322 292.33 322 292.66 322 293C319.36 293 316.72 293 314 293C313.67 291.68 313.34 290.36 313 289Z" fill="#1E1E1E"/>
<path d="M1225 332C1225.99 332.33 1226.98 332.66 1228 333C1227.34 334.98 1226.68 336.96 1226 339C1225.34 339 1224.68 339 1224 339C1224.33 336.69 1224.66 334.38 1225 332Z" fill="#1E1E1E"/>
</g>
<defs>
<clipPath id="clip0_2174_224">
<rect width="1476" height="544" fill="white"/>
</clipPath>
</defs>
</svg>
